<svg xmlns="http://www.w3.org/2000/svg" viewBox="0 0 827.92 936"><g id="Слой_2" data-name="Слой 2"><g id="Слой_1-2" data-name="Слой 1"><path d="M440.16,0c26.31,5.36,47,20.76,65.85,38.49,25.87,24.28,51.13,49.21,76.27,74.24,32.83,32.67,65.55,65.46,97.77,98.72,13.66,14.11,25.54,29.84,33.55,48.09a75.4,75.4,0,0,1,6.56,30.5q.08,79,0,158v5.33C696.7,444,673,437.28,648,434.24v-6.3c0-33.67,0-67.34-.06-101a58,58,0,0,0-1.38-13.35c-3-12.41-12-19.17-23.71-21.61a168.71,168.71,0,0,0-32.12-3.72c-40.5-.43-81-.17-121.52-.23-18.1,0-32-10.81-36.35-28.27a37.23,37.23,0,0,1-.74-8.9c-.05-38.51.3-77-.23-115.51a272.66,272.66,0,0,0-4.12-40.56,26.6,26.6,0,0,0-15-20.08,24,24,0,0,0-10-2.48Q273.45,72,144.18,72.15c-40.56.06-72.05,31.87-72.05,72.42q0,323.52,0,647a71.79,71.79,0,0,0,60.55,71.25,98,98,0,0,0,14.95.82q105,.08,210-.07c4.22,0,6.52,1.27,8.66,4.87A280.87,280.87,0,0,0,418.78,933c.7.64,1.3,1.38,2.46,2.64-2.1.15-3.5.34-4.9.34q-136,0-272,0A144.29,144.29,0,0,1,2.77,819.39,138.78,138.78,0,0,1,.12,792.65Q-.1,467.89,0,143.12C0,79.19,44.44,21.36,106.29,5.09c8.46-2.22,17.19-3.42,25.8-5.09Z"/><path d="M612.05,503.82c117.43,0,216,94.39,215.87,216.14A215.22,215.22,0,0,1,611.8,935.77c-122.22-.09-216.43-99.5-215.91-217.11C396.42,600.15,493.27,503.67,612.05,503.82Zm36,359.51V755.7H755.49V683.8H647.88V576.25h-72v107.9H468.44V756H576.13V863.33Z"/><path d="M358.16,360q91,0,182,0c27.43,0,44.7,27.86,32.34,52.21-6.41,12.64-17.31,19.23-31.36,19.7s-28.33.11-42.49.12l-321.47,0c-19.55,0-34.72-13.53-36.62-34.22-1.48-16.14,9.38-32.74,27.72-37.12a39,39,0,0,1,8.92-.73Q267.66,360,358.16,360Z"/><path d="M420.4,503.8c-19.52,18.7-36.72,38.63-50.17,61.38-5.1,8.64-10.61,11.14-20.37,11.05-56.15-.54-112.32-.24-168.47-.28-18.19,0-32.19-10.87-36.5-28.06-5.24-20.88,10.66-42.57,32.24-44,2-.13,4-.12,6-.12H420.4Z"/><path d="M331.39,648.19c-2.94,23.77-5.87,47.41-8.86,71.59-.54,0-2.15.19-3.77.19q-69,0-137.9,0c-18.52,0-34.37-13.51-36.67-31.05-2.44-18.61,9.08-35.45,27.53-40.12a26.54,26.54,0,0,1,6.4-.75Q253.57,648,329,648A20.83,20.83,0,0,1,331.39,648.19Z"/></g></g></svg>