<svg xmlns="http://www.w3.org/2000/svg" viewBox="0 0 409.49 409.55"><g id="Слой_2" data-name="Слой 2"><g id="Слой_1-2" data-name="Слой 1"><path d="M51.14,358.25H358.26v-5.5c0-23.66-.08-47.33,0-71,.06-13.73,9.5-23.91,23.58-25.83,11.44-1.55,23.45,6.77,26.71,18.75a33,33,0,0,1,.86,8.38q.07,49.74,0,99.48c0,16.57-10.63,27-27.24,27h-355c-16.6,0-27.18-10.49-27.2-27Q0,332.28,0,282c0-14.49,9.57-24.72,24.11-26.19,11.94-1.21,23.79,8.11,26.54,21a28.78,28.78,0,0,1,.43,6q0,34.74,0,69.49Z"/><path d="M179.18,218.37V213q0-93.74,0-187.47A25.17,25.17,0,0,1,199.92.42c12.63-2.19,24.6,4.32,28.72,16.1a34.82,34.82,0,0,1,1.55,11.25q.13,92.48.05,185v7.35c7.55-7.67,14-14.29,20.53-20.83,13-13,25.7-26.14,39-38.77a25.31,25.31,0,0,1,41.83,11.09c3.14,10.33.22,19.25-7.42,26.85q-32.43,32.24-64.7,64.64-17.49,17.49-35,35c-12.15,12.18-27.05,12.35-39.18.25q-50.07-49.94-100-100c-11-11-11.39-27.18-1-37.44s26.09-9.91,37.06,1q27.27,27.16,54.41,54.44a16.66,16.66,0,0,1,1.92,2.91Z"/></g></g></svg>